<svg width="30" height="30" viewBox="0 0 30 30" fill="none" >
<path d="M12.285 6.25L9.785 8.75H5V23.75H25V8.75H20.215L17.715 6.25H12.285ZM11.25 3.75H18.75L21.25 6.25H26.25C26.5815 6.25 26.8995 6.3817 27.1339 6.61612C27.3683 6.85054 27.5 7.16848 27.5 7.5V25C27.5 25.3315 27.3683 25.6495 27.1339 25.8839C26.8995 26.1183 26.5815 26.25 26.25 26.25H3.75C3.41848 26.25 3.10054 26.1183 2.86612 25.8839C2.6317 25.6495 2.5 25.3315 2.5 25V7.5C2.5 7.16848 2.6317 6.85054 2.86612 6.61612C3.10054 6.3817 3.41848 6.25 3.75 6.25H8.75L11.25 3.75ZM15 22.5C13.1766 22.5 11.428 21.7757 10.1386 20.4864C8.84933 19.197 8.125 17.4484 8.125 15.625C8.125 13.8016 8.84933 12.053 10.1386 10.7636C11.428 9.47433 13.1766 8.75 15 8.75C16.8234 8.75 18.572 9.47433 19.8614 10.7636C21.1507 12.053 21.875 13.8016 21.875 15.625C21.875 17.4484 21.1507 19.197 19.8614 20.4864C18.572 21.7757 16.8234 22.5 15 22.5ZM15 20C16.1603 20 17.2731 19.5391 18.0936 18.7186C18.9141 17.8981 19.375 16.7853 19.375 15.625C19.375 14.4647 18.9141 13.3519 18.0936 12.5314C17.2731 11.7109 16.1603 11.25 15 11.25C13.8397 11.25 12.7269 11.7109 11.9064 12.5314C11.0859 13.3519 10.625 14.4647 10.625 15.625C10.625 16.7853 11.0859 17.8981 11.9064 18.7186C12.7269 19.5391 13.8397 20 15 20Z" fill=""/>
</svg>
