<svg width="29" height="29" viewBox="0 0 29 29" fill="none">
    <path d="M13.2915 2.41666C19.2945 2.41666 24.1665 7.28866 24.1665 13.2917C24.1665 19.2947 19.2945 24.1667 13.2915 24.1667C7.2885 24.1667 2.4165 19.2947 2.4165 13.2917C2.4165 7.28866 7.2885 2.41666 13.2915 2.41666ZM13.2915 21.75C17.9641 21.75 21.7498 17.9643 21.7498 13.2917C21.7498 8.61782 17.9641 4.83332 13.2915 4.83332C8.61767 4.83332 4.83317 8.61782 4.83317 13.2917C4.83317 17.9643 8.61767 21.75 13.2915 21.75ZM23.5442 21.8358L26.9626 25.2529L25.2528 26.9627L21.8356 23.5444L23.5442 21.8358Z" fill=""/>
</svg>