<svg width="29" height="29" viewBox="0 0 29 29" fill="none" >
    <path d="M24.1668 26.5833H21.7502V24.1667C21.7502 23.2053 21.3682 22.2832 20.6884 21.6034C20.0086 20.9236 19.0866 20.5417 18.1252 20.5417H10.8752C9.91375 20.5417 8.99172 20.9236 8.3119 21.6034C7.63208 22.2832 7.25016 23.2053 7.25016 24.1667V26.5833H4.8335V24.1667C4.8335 22.5643 5.47003 21.0276 6.60306 19.8946C7.73609 18.7615 9.27281 18.125 10.8752 18.125H18.1252C19.7275 18.125 21.2642 18.7615 22.3973 19.8946C23.5303 21.0276 24.1668 22.5643 24.1668 24.1667V26.5833ZM14.5002 15.7083C13.5481 15.7083 12.6053 15.5208 11.7257 15.1565C10.8461 14.7921 10.0469 14.2581 9.37364 13.5849C8.70041 12.9116 8.16638 12.1124 7.80204 11.2328C7.43769 10.3532 7.25016 9.41043 7.25016 8.45834C7.25016 7.50626 7.43769 6.5635 7.80204 5.68389C8.16638 4.80428 8.70041 4.00504 9.37364 3.33182C10.0469 2.65859 10.8461 2.12456 11.7257 1.76022C12.6053 1.39587 13.5481 1.20834 14.5002 1.20834C16.423 1.20834 18.267 1.97218 19.6267 3.33182C20.9863 4.69146 21.7502 6.53552 21.7502 8.45834C21.7502 10.3812 20.9863 12.2252 19.6267 13.5849C18.267 14.9445 16.423 15.7083 14.5002 15.7083ZM14.5002 13.2917C15.782 13.2917 17.0114 12.7825 17.9178 11.876C18.8243 10.9696 19.3335 9.74022 19.3335 8.45834C19.3335 7.17646 18.8243 5.94709 17.9178 5.04066C17.0114 4.13423 15.782 3.62501 14.5002 3.62501C13.2183 3.62501 11.9889 4.13423 11.0825 5.04066C10.1761 5.94709 9.66683 7.17646 9.66683 8.45834C9.66683 9.74022 10.1761 10.9696 11.0825 11.876C11.9889 12.7825 13.2183 13.2917 14.5002 13.2917Z" fill=""/>
</svg>